# xmcd
#
# Track frame offsets: 
#        150
#        6435
#        29002
#        47356
#        65855
#        86380
#        105683
#        123838
#        132377
#        152327
#        170839
#        188571
#        213551
#        233565
#        247911
#        262276
#
# Disc length: 3724 seconds
#
# Revision: 0
# Processed by: cddbd v1.5.2PL0 Copyright (c) Steve Scherf et al.
# Submitted via: ExactAudioCopyFreeDBPlugin 1.0
#
DISCID=db0e8a10
DTITLE=B.E. Der Micathlet - Makina Mixtape
DYEAR=2016
DGENRE=Hip-Hop
TTITLE0=Unbreakable
TTITLE1=Never back down feat. DNM
TTITLE2=Daymares (Fawzi Yamouni rmx) feat. Concetta
TTITLE3=Spuck drauf feat. Kap and Vassko
TTITLE4=Beam mich weg feat. Najeeb
TTITLE5=Propaganda (2009)
TTITLE6=Blind feat. Nazz
TTITLE7=Lawine feat. Da Sems
TTITLE8=Lass den Kopf hängen feat. Najeeb and Lou Lettow
TTITLE9=Hansta
TTITLE10=I shit on you feat. Vito Vitality and MK Hover
TTITLE11=Dead motherfucker feat. Timm, Loops and Niak
TTITLE12=Sonnensegel feat. Buhman Baracus
TTITLE13=Hass es oder lieb es feat. Ayouni
TTITLE14=So lala (Prequel)
TTITLE15=Verlaufen im Sand feat. LK
EXTD=
EXTT0=
EXTT1=
EXTT2=
EXTT3=
EXTT4=
EXTT5=
EXTT6=
EXTT7=
EXTT8=
EXTT9=
EXTT10=
EXTT11=
EXTT12=
EXTT13=
EXTT14=
EXTT15=
PLAYORDER=
